# xmcd
#
# Track frame offsets: 
#        150
#        14992
#        25330
#        40707
#        56135
#        66550
#        76095
#        90985
#        106377
#        118130
#        137472
#        164215
#
# Disc length: 2390 seconds
#
# Revision: 4
# Processed by: cddbd v1.5.2PL0 Copyright (c) Steve Scherf et al.
# Submitted via: ExactAudioCopy v0.95b4
#
DISCID=a609540c
DTITLE=Willie Dixon, Memphis Slim - Willie's Blues
DYEAR=1959
DGENRE=Blues
TTITLE0=Nervous
TTITLE1=Good Understanding
TTITLE2=That's My Baby
TTITLE3=Slim's Thing
TTITLE4=That's All I Want Baby
TTITLE5=Don't You Tell Nobody
TTITLE6=Youth To You
TTITLE7=Sittin' And Cryin' The Blues
TTITLE8=Built For Comfort
TTITLE9=I Got A Razor
TTITLE10=Go Easy
TTITLE11=Move Me
EXTD=
EXTT0=
EXTT1=
EXTT2=
EXTT3=
EXTT4=
EXTT5=
EXTT6=
EXTT7=
EXTT8=
EXTT9=
EXTT10=
EXTT11=
PLAYORDER=
